<svg width="306" height="154" viewBox="0 0 306 154" fill="none" xmlns="http://www.w3.org/2000/svg">
<rect width="306" height="154" fill="#F5F5F5"/>
<g opacity="0.8">
<path d="M42.3104 77.4485C51.6506 77.4485 60.6083 73.3944 67.2129 66.1781C73.8174 58.9618 77.5278 49.1745 77.5278 38.9691C77.5278 28.7637 73.8174 18.9764 67.2129 11.7601C60.6083 4.54378 51.6506 0.489717 42.3104 0.489716L42.3104 38.9691L42.3104 77.4485Z" fill="#5A5A5A"/>
<path d="M189.778 77.4485C199.118 77.4485 208.076 73.3944 214.681 66.1781C221.285 58.9618 224.995 49.1745 224.995 38.9691C224.995 28.7637 221.285 18.9764 214.681 11.7601C208.076 4.54378 199.118 0.489717 189.778 0.489716L189.778 38.9691V77.4485Z" fill="#939393"/>
<path d="M265.713 0.488914C265.713 5.5421 264.773 10.5458 262.948 15.2143C261.123 19.8829 258.448 24.1248 255.075 27.6979C251.703 31.2711 247.699 34.1055 243.293 36.0392C238.887 37.973 234.164 38.9683 229.395 38.9683L229.395 0.488914H265.713Z" fill="#1A1A1A"/>
<path d="M229.245 38.9838C234.005 38.9817 238.718 39.9746 243.116 41.9059C247.513 43.8372 251.51 46.6691 254.877 50.24C258.244 53.8108 260.915 58.0506 262.738 62.7172C264.562 67.3839 265.501 72.3861 265.503 77.4382L229.262 77.4549L229.245 38.9838Z" fill="#5A5A5A"/>
<path d="M266.816 0.490784H293.635C300.705 0.490784 306.435 6.22154 306.435 13.2908V38.9702H279.616C272.546 38.9702 266.816 33.2394 266.816 26.1702V0.490784Z" fill="#5A5A5A"/>
<path d="M0 0.490784H26.8196C33.8889 0.490784 39.6196 6.22154 39.6196 13.2908V38.9702H12.8C5.73076 38.9702 0 33.2394 0 26.1702V0.490784Z" fill="#939393"/>
<path d="M266.816 77.4683V51.7889C266.816 44.7196 272.546 38.9889 279.616 38.9889H306.435V64.6683C306.435 71.7375 300.705 77.4683 293.635 77.4683H266.816Z" fill="#191919"/>
<path d="M0 77.4683L0 51.7889C0 44.7196 5.73076 38.9889 12.8 38.9889H39.6196V64.6683C39.6196 71.7375 33.8889 77.4683 26.8196 77.4683H0Z" fill="#191919"/>
<path d="M189.778 77.4485C180.438 77.4485 171.48 73.3944 164.876 66.1781C158.271 58.9618 154.561 49.1745 154.561 38.9691C154.561 28.7637 158.271 18.9764 164.876 11.7601C171.48 4.54378 180.438 0.489717 189.778 0.489716L189.778 38.9691V77.4485Z" fill="#333333"/>
<path d="M79.7281 77.4485C84.3529 77.4485 88.9325 76.4532 93.2052 74.5194C97.478 72.5856 101.36 69.7513 104.631 66.1781C107.901 62.605 110.495 58.363 112.265 53.6945C114.035 49.026 114.946 44.0223 114.946 38.9691L79.7281 38.9691L79.7281 77.4485Z" fill="#939393"/>
<path d="M114.923 39.0589C110.317 39.0743 105.754 38.0945 101.492 36.1754C97.2311 34.2563 93.3558 31.4355 90.0878 27.874C86.8197 24.3126 84.2229 20.0802 82.4456 15.4186C80.6683 10.757 79.7453 5.75744 79.7294 0.705384L114.801 0.588108L114.923 39.0589Z" fill="#333333"/>
<path d="M114.944 38.9399C114.944 34.184 115.912 29.4746 117.792 25.0807C119.673 20.6868 122.429 16.6944 125.904 13.3314C129.378 9.96844 133.503 7.30079 138.043 5.48077C142.583 3.66075 147.449 2.724 152.363 2.724L152.363 38.9399L114.944 38.9399Z" fill="#939393"/>
<path d="M114.936 38.983C119.56 38.983 124.14 39.9783 128.413 41.912C132.686 43.8458 136.568 46.6802 139.838 50.2533C143.108 53.8265 145.702 58.0684 147.472 62.7369C149.242 67.4055 150.153 72.4092 150.153 77.4624L114.936 77.4623V38.983Z" fill="#333333"/>
</g>
<g opacity="0.8">
<path d="M42.3104 154.448C51.6506 154.448 60.6083 150.394 67.2129 143.178C73.8174 135.962 77.5278 126.174 77.5278 115.969C77.5278 105.764 73.8174 95.9764 67.2129 88.7601C60.6083 81.5438 51.6506 77.4897 42.3104 77.4897L42.3104 115.969L42.3104 154.448Z" fill="#5A5A5A"/>
<path d="M189.778 154.448C199.118 154.448 208.076 150.394 214.681 143.178C221.285 135.962 224.995 126.174 224.995 115.969C224.995 105.764 221.285 95.9764 214.681 88.7601C208.076 81.5438 199.118 77.4897 189.778 77.4897L189.778 115.969V154.448Z" fill="#939393"/>
<path d="M265.713 77.4889C265.713 82.5421 264.773 87.5458 262.948 92.2143C261.123 96.8829 258.448 101.125 255.075 104.698C251.703 108.271 247.699 111.105 243.293 113.039C238.887 114.973 234.164 115.968 229.395 115.968L229.395 77.4889H265.713Z" fill="#1A1A1A"/>
<path d="M229.245 115.984C234.005 115.982 238.718 116.975 243.116 118.906C247.513 120.837 251.51 123.669 254.877 127.24C258.244 130.811 260.915 135.051 262.738 139.717C264.562 144.384 265.501 149.386 265.503 154.438L229.262 154.455L229.245 115.984Z" fill="#5A5A5A"/>
<path d="M266.816 77.4908H293.635C300.705 77.4908 306.435 83.2215 306.435 90.2908V115.97H279.616C272.546 115.97 266.816 110.239 266.816 103.17V77.4908Z" fill="#5A5A5A"/>
<path d="M0 77.4908H26.8196C33.8889 77.4908 39.6196 83.2215 39.6196 90.2908V115.97H12.8C5.73076 115.97 0 110.239 0 103.17V77.4908Z" fill="#939393"/>
<path d="M266.816 154.468V128.789C266.816 121.72 272.546 115.989 279.616 115.989H306.435V141.668C306.435 148.738 300.705 154.468 293.635 154.468H266.816Z" fill="#191919"/>
<path d="M0 154.468L0 128.789C0 121.72 5.73076 115.989 12.8 115.989H39.6196V141.668C39.6196 148.738 33.8889 154.468 26.8196 154.468H0Z" fill="#191919"/>
<path d="M189.778 154.448C180.438 154.448 171.48 150.394 164.876 143.178C158.271 135.962 154.561 126.174 154.561 115.969C154.561 105.764 158.271 95.9764 164.876 88.7601C171.48 81.5438 180.438 77.4897 189.778 77.4897L189.778 115.969V154.448Z" fill="#333333"/>
<path d="M79.7281 154.448C84.3529 154.448 88.9325 153.453 93.2052 151.519C97.478 149.586 101.36 146.751 104.631 143.178C107.901 139.605 110.495 135.363 112.265 130.695C114.035 126.026 114.946 121.022 114.946 115.969L79.7281 115.969L79.7281 154.448Z" fill="#939393"/>
<path d="M114.923 116.059C110.317 116.074 105.754 115.095 101.492 113.175C97.2311 111.256 93.3558 108.435 90.0878 104.874C86.8197 101.313 84.2229 97.0802 82.4456 92.4186C80.6683 87.757 79.7453 82.7574 79.7294 77.7054L114.801 77.5881L114.923 116.059Z" fill="#333333"/>
<path d="M114.944 115.94C114.944 111.184 115.912 106.475 117.792 102.081C119.673 97.6868 122.429 93.6944 125.904 90.3314C129.378 86.9684 133.503 84.3008 138.043 82.4808C142.583 80.6608 147.449 79.724 152.363 79.724L152.363 115.94H114.944Z" fill="#939393"/>
<path d="M114.936 115.983C119.56 115.983 124.14 116.978 128.413 118.912C132.686 120.846 136.568 123.68 139.838 127.253C143.108 130.826 145.702 135.068 147.472 139.737C149.242 144.405 150.153 149.409 150.153 154.462L114.936 154.462V115.983Z" fill="#333333"/>
</g>
</svg>
